<svg width="314" height="45" viewBox="0 0 314 45" fill="none" xmlns="http://www.w3.org/2000/svg">
<path d="M14.2969 2.73438C17.4062 2.73438 19.9688 3.10938 21.9844 3.85938C24.0156 4.60938 25.5234 5.74219 26.5078 7.25781C27.4922 8.77344 27.9844 10.6875 27.9844 13C27.9844 14.5625 27.6875 15.9297 27.0938 17.1016C26.5 18.2734 25.7188 19.2656 24.75 20.0781C23.7812 20.8906 22.7344 21.5547 21.6094 22.0703L31.6875 37H23.625L15.4453 23.8516H11.5781V37H4.3125V2.73438H14.2969ZM13.7812 8.6875H11.5781V17.9453H13.9219C16.3281 17.9453 18.0469 17.5469 19.0781 16.75C20.125 15.9375 20.6484 14.75 20.6484 13.1875C20.6484 11.5625 20.0859 10.4062 18.9609 9.71875C17.8516 9.03125 16.125 8.6875 13.7812 8.6875Z" fill="#141414"/>
<path d="M46.2422 10.3047C48.6641 10.3047 50.75 10.7734 52.5 11.7109C54.25 12.6328 55.6016 13.9766 56.5547 15.7422C57.5078 17.5078 57.9844 19.6641 57.9844 22.2109V25.6797H41.0859C41.1641 27.6953 41.7656 29.2812 42.8906 30.4375C44.0312 31.5781 45.6094 32.1484 47.625 32.1484C49.2969 32.1484 50.8281 31.9766 52.2188 31.6328C53.6094 31.2891 55.0391 30.7734 56.5078 30.0859V35.6172C55.2109 36.2578 53.8516 36.7266 52.4297 37.0234C51.0234 37.3203 49.3125 37.4688 47.2969 37.4688C44.6719 37.4688 42.3438 36.9844 40.3125 36.0156C38.2969 35.0469 36.7109 33.5703 35.5547 31.5859C34.4141 29.6016 33.8438 27.1016 33.8438 24.0859C33.8438 21.0234 34.3594 18.4766 35.3906 16.4453C36.4375 14.3984 37.8906 12.8672 39.75 11.8516C41.6094 10.8203 43.7734 10.3047 46.2422 10.3047ZM46.2891 15.3906C44.8984 15.3906 43.7422 15.8359 42.8203 16.7266C41.9141 17.6172 41.3906 19.0156 41.25 20.9219H51.2812C51.2656 19.8594 51.0703 18.9141 50.6953 18.0859C50.3359 17.2578 49.7891 16.6016 49.0547 16.1172C48.3359 15.6328 47.4141 15.3906 46.2891 15.3906Z" fill="#141414"/>
<path d="M78.6797 10.3047C81.4766 10.3047 83.7266 11.0703 85.4297 12.6016C87.1328 14.1172 87.9844 16.5547 87.9844 19.9141V37H80.8359V21.6953C80.8359 19.8203 80.4922 18.4062 79.8047 17.4531C79.1328 16.5 78.0703 16.0234 76.6172 16.0234C74.4297 16.0234 72.9375 16.7656 72.1406 18.25C71.3438 19.7344 70.9453 21.875 70.9453 24.6719V37H63.7969V10.7969H69.2578L70.2188 14.1484H70.6172C71.1797 13.2422 71.875 12.5078 72.7031 11.9453C73.5469 11.3828 74.4766 10.9688 75.4922 10.7031C76.5234 10.4375 77.5859 10.3047 78.6797 10.3047Z" fill="#141414"/>
<path d="M106.078 10.2578C109.594 10.2578 112.289 11.0234 114.164 12.5547C116.039 14.0859 116.977 16.4141 116.977 19.5391V37H111.984L110.602 33.4375H110.414C109.664 34.375 108.898 35.1406 108.117 35.7344C107.336 36.3281 106.438 36.7656 105.422 37.0469C104.406 37.3281 103.172 37.4688 101.719 37.4688C100.172 37.4688 98.7812 37.1719 97.5469 36.5781C96.3281 35.9844 95.3672 35.0781 94.6641 33.8594C93.9609 32.625 93.6094 31.0625 93.6094 29.1719C93.6094 26.3906 94.5859 24.3438 96.5391 23.0312C98.4922 21.7031 101.422 20.9688 105.328 20.8281L109.875 20.6875V19.5391C109.875 18.1641 109.516 17.1562 108.797 16.5156C108.078 15.875 107.078 15.5547 105.797 15.5547C104.531 15.5547 103.289 15.7344 102.07 16.0938C100.852 16.4531 99.6328 16.9062 98.4141 17.4531L96.0469 12.625C97.4375 11.8906 98.9922 11.3125 100.711 10.8906C102.445 10.4688 104.234 10.2578 106.078 10.2578ZM109.875 24.8594L107.109 24.9531C104.797 25.0156 103.188 25.4297 102.281 26.1953C101.391 26.9609 100.945 27.9688 100.945 29.2188C100.945 30.3125 101.266 31.0938 101.906 31.5625C102.547 32.0156 103.383 32.2422 104.414 32.2422C105.945 32.2422 107.234 31.7891 108.281 30.8828C109.344 29.9766 109.875 28.6875 109.875 27.0156V24.8594Z" fill="#141414"/>
<path d="M139.242 10.3047C142.039 10.3047 144.289 11.0703 145.992 12.6016C147.695 14.1172 148.547 16.5547 148.547 19.9141V37H141.398V21.6953C141.398 19.8203 141.055 18.4062 140.367 17.4531C139.695 16.5 138.633 16.0234 137.18 16.0234C134.992 16.0234 133.5 16.7656 132.703 18.25C131.906 19.7344 131.508 21.875 131.508 24.6719V37H124.359V10.7969H129.82L130.781 14.1484H131.18C131.742 13.2422 132.438 12.5078 133.266 11.9453C134.109 11.3828 135.039 10.9688 136.055 10.7031C137.086 10.4375 138.148 10.3047 139.242 10.3047Z" fill="#141414"/>
<path d="M183.492 8.28906C182.102 8.28906 180.867 8.5625 179.789 9.10938C178.727 9.64062 177.828 10.4141 177.094 11.4297C176.375 12.4453 175.828 13.6719 175.453 15.1094C175.078 16.5469 174.891 18.1641 174.891 19.9609C174.891 22.3828 175.188 24.4531 175.781 26.1719C176.391 27.875 177.328 29.1797 178.594 30.0859C179.859 30.9766 181.492 31.4219 183.492 31.4219C184.883 31.4219 186.273 31.2656 187.664 30.9531C189.07 30.6406 190.594 30.1953 192.234 29.6172V35.7109C190.719 36.3359 189.227 36.7812 187.758 37.0469C186.289 37.3281 184.641 37.4688 182.812 37.4688C179.281 37.4688 176.375 36.7422 174.094 35.2891C171.828 33.8203 170.148 31.7734 169.055 29.1484C167.961 26.5078 167.414 23.4297 167.414 19.9141C167.414 17.3203 167.766 14.9453 168.469 12.7891C169.172 10.6328 170.203 8.76562 171.562 7.1875C172.922 5.60938 174.602 4.39062 176.602 3.53125C178.602 2.67188 180.898 2.24219 183.492 2.24219C185.195 2.24219 186.898 2.46094 188.602 2.89844C190.32 3.32031 191.961 3.90625 193.523 4.65625L191.18 10.5625C189.898 9.95312 188.609 9.42188 187.312 8.96875C186.016 8.51562 184.742 8.28906 183.492 8.28906Z" fill="#141414"/>
<path d="M209.719 10.2578C213.234 10.2578 215.93 11.0234 217.805 12.5547C219.68 14.0859 220.617 16.4141 220.617 19.5391V37H215.625L214.242 33.4375H214.055C213.305 34.375 212.539 35.1406 211.758 35.7344C210.977 36.3281 210.078 36.7656 209.062 37.0469C208.047 37.3281 206.812 37.4688 205.359 37.4688C203.812 37.4688 202.422 37.1719 201.188 36.5781C199.969 35.9844 199.008 35.0781 198.305 33.8594C197.602 32.625 197.25 31.0625 197.25 29.1719C197.25 26.3906 198.227 24.3438 200.18 23.0312C202.133 21.7031 205.062 20.9688 208.969 20.8281L213.516 20.6875V19.5391C213.516 18.1641 213.156 17.1562 212.438 16.5156C211.719 15.875 210.719 15.5547 209.438 15.5547C208.172 15.5547 206.93 15.7344 205.711 16.0938C204.492 16.4531 203.273 16.9062 202.055 17.4531L199.688 12.625C201.078 11.8906 202.633 11.3125 204.352 10.8906C206.086 10.4688 207.875 10.2578 209.719 10.2578ZM213.516 24.8594L210.75 24.9531C208.438 25.0156 206.828 25.4297 205.922 26.1953C205.031 26.9609 204.586 27.9688 204.586 29.2188C204.586 30.3125 204.906 31.0938 205.547 31.5625C206.188 32.0156 207.023 32.2422 208.055 32.2422C209.586 32.2422 210.875 31.7891 211.922 30.8828C212.984 29.9766 213.516 28.6875 213.516 27.0156V24.8594Z" fill="#141414"/>
<path d="M242.625 10.3047C242.984 10.3047 243.398 10.3281 243.867 10.375C244.352 10.4062 244.742 10.4531 245.039 10.5156L244.5 17.2188C244.266 17.1406 243.93 17.0859 243.492 17.0547C243.07 17.0078 242.703 16.9844 242.391 16.9844C241.469 16.9844 240.57 17.1016 239.695 17.3359C238.836 17.5703 238.062 17.9531 237.375 18.4844C236.688 19 236.141 19.6875 235.734 20.5469C235.344 21.3906 235.148 22.4297 235.148 23.6641V37H228V10.7969H233.414L234.469 15.2031H234.82C235.336 14.3125 235.977 13.5 236.742 12.7656C237.523 12.0156 238.406 11.4219 239.391 10.9844C240.391 10.5312 241.469 10.3047 242.625 10.3047Z" fill="#141414"/>
<path d="M256.945 37H249.797V0.53125H256.945V37Z" fill="#141414"/>
<path d="M288.281 23.8516C288.281 26.0391 287.984 27.9766 287.391 29.6641C286.812 31.3516 285.961 32.7812 284.836 33.9531C283.727 35.1094 282.383 35.9844 280.805 36.5781C279.242 37.1719 277.477 37.4688 275.508 37.4688C273.664 37.4688 271.969 37.1719 270.422 36.5781C268.891 35.9844 267.555 35.1094 266.414 33.9531C265.289 32.7812 264.414 31.3516 263.789 29.6641C263.18 27.9766 262.875 26.0391 262.875 23.8516C262.875 20.9453 263.391 18.4844 264.422 16.4688C265.453 14.4531 266.922 12.9219 268.828 11.875C270.734 10.8281 273.008 10.3047 275.648 10.3047C278.102 10.3047 280.273 10.8281 282.164 11.875C284.07 12.9219 285.562 14.4531 286.641 16.4688C287.734 18.4844 288.281 20.9453 288.281 23.8516ZM270.164 23.8516C270.164 25.5703 270.352 27.0156 270.727 28.1875C271.102 29.3594 271.688 30.2422 272.484 30.8359C273.281 31.4297 274.32 31.7266 275.602 31.7266C276.867 31.7266 277.891 31.4297 278.672 30.8359C279.469 30.2422 280.047 29.3594 280.406 28.1875C280.781 27.0156 280.969 25.5703 280.969 23.8516C280.969 22.1172 280.781 20.6797 280.406 19.5391C280.047 18.3828 279.469 17.5156 278.672 16.9375C277.875 16.3594 276.836 16.0703 275.555 16.0703C273.664 16.0703 272.289 16.7188 271.43 18.0156C270.586 19.3125 270.164 21.2578 270.164 23.8516Z" fill="#141414"/>
<path d="M312.469 29.2188C312.469 31 312.047 32.5078 311.203 33.7422C310.375 34.9609 309.133 35.8906 307.477 36.5312C305.82 37.1562 303.758 37.4688 301.289 37.4688C299.461 37.4688 297.891 37.3516 296.578 37.1172C295.281 36.8828 293.969 36.4922 292.641 35.9453V30.0391C294.062 30.6797 295.586 31.2109 297.211 31.6328C298.852 32.0391 300.289 32.2422 301.523 32.2422C302.914 32.2422 303.906 32.0391 304.5 31.6328C305.109 31.2109 305.414 30.6641 305.414 29.9922C305.414 29.5547 305.289 29.1641 305.039 28.8203C304.805 28.4609 304.289 28.0625 303.492 27.625C302.695 27.1719 301.445 26.5859 299.742 25.8672C298.102 25.1797 296.75 24.4844 295.688 23.7812C294.641 23.0781 293.859 22.25 293.344 21.2969C292.844 20.3281 292.594 19.1016 292.594 17.6172C292.594 15.1953 293.531 13.375 295.406 12.1562C297.297 10.9219 299.82 10.3047 302.977 10.3047C304.602 10.3047 306.148 10.4688 307.617 10.7969C309.102 11.125 310.625 11.6484 312.188 12.3672L310.031 17.5234C308.734 16.9609 307.508 16.5 306.352 16.1406C305.211 15.7812 304.047 15.6016 302.859 15.6016C301.812 15.6016 301.023 15.7422 300.492 16.0234C299.961 16.3047 299.695 16.7344 299.695 17.3125C299.695 17.7344 299.828 18.1094 300.094 18.4375C300.375 18.7656 300.906 19.1328 301.688 19.5391C302.484 19.9297 303.648 20.4375 305.18 21.0625C306.664 21.6719 307.953 22.3125 309.047 22.9844C310.141 23.6406 310.984 24.4609 311.578 25.4453C312.172 26.4141 312.469 27.6719 312.469 29.2188Z" fill="#141414"/>
<path d="M0 43H314V45H0V43Z" fill="#00C696"/>
</svg>
